<svg width="87" height="23" viewBox="0 0 87 23" fill="none" xmlns="http://www.w3.org/2000/svg">
<path d="M0.15 22H14.52V19.39H3.15V0.999999H0.15V22ZM27.0616 22.24C33.4516 22.24 38.1916 17.68 38.1916 11.5C38.1916 5.32 33.4516 0.76 27.0616 0.76C20.6116 0.76 15.8716 5.35 15.8716 11.5C15.8716 17.65 20.6116 22.24 27.0616 22.24ZM27.0616 19.57C22.3516 19.57 18.8716 16.15 18.8716 11.5C18.8716 6.85 22.3516 3.43 27.0616 3.43C31.7116 3.43 35.1916 6.85 35.1916 11.5C35.1916 16.15 31.7116 19.57 27.0616 19.57ZM57.327 18.22C55.827 19.18 54.177 19.57 52.407 19.57C47.577 19.57 44.067 16.12 44.067 11.5C44.067 6.82 47.577 3.43 52.437 3.43C54.807 3.43 56.787 4.18 58.527 5.86L60.387 4C58.467 1.87 55.647 0.76 52.317 0.76C45.807 0.76 41.067 5.29 41.067 11.5C41.067 17.71 45.807 22.24 52.257 22.24C55.197 22.24 58.107 21.34 60.207 19.57V11.38H57.327V18.22ZM75.4308 22.24C81.8208 22.24 86.5608 17.68 86.5608 11.5C86.5608 5.32 81.8208 0.76 75.4308 0.76C68.9808 0.76 64.2408 5.35 64.2408 11.5C64.2408 17.65 68.9808 22.24 75.4308 22.24ZM75.4308 19.57C70.7208 19.57 67.2408 16.15 67.2408 11.5C67.2408 6.85 70.7208 3.43 75.4308 3.43C80.0808 3.43 83.5608 6.85 83.5608 11.5C83.5608 16.15 80.0808 19.57 75.4308 19.57Z" fill="black"/>
</svg>
